<svg width="16" height="18" viewBox="0 0 16 18" fill="none" xmlns="http://www.w3.org/2000/svg">
<path d="M6.35603 7.54167C6.93939 7.61365 7.44973 7.17576 7.4493 6.66637C7.52158 6.15612 7.08326 5.64706 6.49989 5.57508C5.91653 5.5031 5.4062 5.94099 5.40662 6.45038C5.40716 7.03312 5.84532 7.4695 6.35603 7.54167Z" fill="#EE3869"/>
<path d="M12.0156 2.74538C11.8701 1.80031 11.36 1.36396 10.9954 1.14545L10.8499 1.07307H10.7045C10.3398 1 10.0483 1 9.82974 1C9.39272 1 9.02807 1.07307 8.80956 1.36396C8.51798 1.65486 8.44559 2.01814 8.51798 2.3821C8.66411 3.25479 8.73717 3.83658 8.73717 4.27293C8.80956 5.36345 8.88262 6.38159 8.88262 7.1819C8.88262 10.2363 8.15402 12.5635 6.62373 14.1634H6.55135C6.33216 14.091 6.18671 14.091 6.04126 14.091C5.23959 14.091 4.72949 14.5998 4.72949 15.2546C4.72949 15.764 5.02107 16.2728 5.67661 16.6367C6.11364 16.8546 6.55135 17 7.06076 17C7.42541 17 7.71699 16.9276 7.9355 16.8546C10.4853 15.6179 11.8701 12.8544 12.0886 8.49093C12.1617 6.96338 12.1617 5.43652 12.0156 4.05442C12.0886 3.61807 12.0156 3.18172 12.0156 2.74538Z" fill="#EE3869"/>
<path d="M5.524 10.8879C6.10735 10.9599 6.61769 10.522 6.61659 10.0126C6.61621 9.50253 6.25123 8.99332 5.66787 8.92134C5.08451 8.84936 4.57417 9.28725 4.5746 9.79663C4.57513 10.3794 5.01329 10.8158 5.524 10.8879Z" fill="#EE3869"/>
</svg>
