<svg width="25" height="24" viewBox="0 0 25 24" fill="none" xmlns="http://www.w3.org/2000/svg">
<g clip-path="url(#clip0_2483_3289)">
<path d="M16.1612 20C15.4996 21.5823 14.2415 22.8404 12.6592 23.502C11.0769 22.8404 9.81874 21.5823 9.15718 20H11.4172C11.7432 20.489 12.1642 20.912 12.6592 21.243C13.1542 20.913 13.5752 20.489 13.9022 20H16.1612ZM18.6592 14.805L20.6592 17.073V19H4.65918L4.65918 17.073L6.65918 14.805V8.99999C6.65918 5.51699 9.16318 2.55299 12.6592 1.45499C16.1552 2.55299 18.6592 5.51699 18.6592 8.99999V14.805ZM17.9292 17L16.6592 15.56V8.99999C16.6592 6.68199 15.0892 4.56999 12.6592 3.57999C10.2292 4.56999 8.65918 6.68099 8.65918 8.99999V15.56L7.38918 17H17.9292ZM12.6592 11C12.1287 11 11.62 10.7893 11.245 10.4142C10.8699 10.0391 10.6592 9.53042 10.6592 8.99999C10.6592 8.46955 10.8699 7.96085 11.245 7.58577C11.62 7.2107 12.1287 6.99999 12.6592 6.99999C13.1896 6.99999 13.6983 7.2107 14.0734 7.58577C14.4485 7.96085 14.6592 8.46955 14.6592 8.99999C14.6592 9.53042 14.4485 10.0391 14.0734 10.4142C13.6983 10.7893 13.1896 11 12.6592 11Z" fill="#EE3869"/>
</g>
<defs>
<clipPath id="clip0_2483_3289">
<rect width="24" height="24" fill="white" transform="translate(0.65918)"/>
</clipPath>
</defs>
</svg>
