<svg width="88" height="29" viewBox="0 0 88 29" fill="none" xmlns="http://www.w3.org/2000/svg">
<path fill-rule="evenodd" clip-rule="evenodd" d="M84.9147 12.5622L84.9149 12.5625C85.2649 13.2356 85.7058 14.0832 86.2575 15.1524C87.4917 17.4935 88.1082 19.4644 87.9844 20.9426C87.9844 22.4209 87.6143 23.7753 86.874 25.1309C86.5039 25.7475 85.8862 26.3628 84.8996 27.1019C84.0356 27.7184 83.1715 28.0874 82.3075 28.0874C81.9374 28.0874 81.5672 28.0874 81.1971 27.9648H81.0733C79.469 27.3483 79.2227 26.3628 79.2227 25.7475C79.2227 25.1309 79.469 24.5144 80.0855 23.8991C80.4568 23.4064 81.0733 23.2826 81.4435 23.2826C81.8136 22.5435 81.9374 21.8044 81.9374 21.0653C81.9374 20.2035 81.5672 18.4789 79.8392 15.2761C78.1111 12.3185 77.3708 9.85482 77.3708 8.00762C77.3708 6.40563 77.741 4.92741 78.3586 3.69556C79.0989 2.21733 80.2093 1.10925 81.691 0.492741C82.4313 0.122607 83.1715 0 83.9118 0C85.2697 0 86.3801 0.492741 87.1204 1.23185C87.7381 1.84836 87.8618 2.46371 87.8618 2.83384C87.8618 3.57295 87.6143 4.43467 86.1338 5.17378C85.6399 5.42015 85.146 5.42015 84.6521 5.29754C83.788 6.28303 83.4179 7.26851 83.4179 8.62297C83.4179 9.11571 83.5417 9.60845 83.6654 9.97858C83.6654 10.1601 83.9337 10.6759 84.9146 12.562L84.9146 12.562L84.9147 12.5622ZM40.8045 1.37695C39.5703 1.37695 38.9538 1.99346 38.7063 2.4862C37.966 3.59429 37.3495 4.94991 36.7318 6.55074C36.6695 6.7388 36.6069 6.89492 36.5442 7.0514C36.4835 7.20289 36.4226 7.35472 36.3617 7.53622C36.2995 7.47463 36.2686 7.3818 36.2376 7.28898C36.207 7.19702 36.1763 7.10507 36.1153 7.04348C35.4977 5.68902 34.7574 4.45716 34.1397 3.59429L33.8934 3.22531L33.3995 3.10155C31.9189 2.73257 31.9189 2.73257 31.6714 2.73257C31.0549 2.73257 30.561 2.97894 29.9445 3.34792C29.2031 3.96442 28.9567 4.57977 28.9567 5.07251C28.9567 5.36439 29.0337 5.57931 29.1263 5.83808L29.1264 5.83812L29.1264 5.8382L29.1264 5.8383C29.1512 5.90761 29.1772 5.98007 29.2031 6.05799C30.3146 7.90635 31.6714 10.8628 33.2769 14.8047L31.3013 19.7321C30.4372 21.9495 29.9445 24.0442 29.9445 25.7688C29.9445 26.3853 30.0671 27.1244 31.1787 27.8635C31.7952 28.2325 32.4128 28.4789 33.0293 28.4789H33.2769C34.7574 28.4789 35.7452 27.6172 35.8678 26.1378V24.5369C35.8678 24.2082 35.9229 23.934 35.9596 23.7515L35.9596 23.7515C35.9779 23.6605 35.9916 23.5923 35.9916 23.5515C36.6092 21.8269 37.966 18.5003 39.9404 13.8192C41.7923 9.63095 43.0264 6.30437 43.6441 3.71805L43.7667 2.97894L43.2728 2.4862C42.6563 1.74709 41.7923 1.37695 40.8045 1.37695ZM10.8771 1.97566C11.4948 2.3458 12.3588 3.08491 12.6052 4.68574C12.6052 4.93211 12.6189 5.17848 12.6327 5.42485C12.6602 5.91759 12.6877 6.41034 12.6052 6.90308C12.8527 9.24417 12.8527 11.8305 12.729 14.418C12.3588 21.8091 10.0131 26.4901 5.69409 28.5848C5.32396 28.7086 4.83006 28.8312 4.2124 28.8312C3.34952 28.8312 2.60809 28.5848 1.86783 28.2159C0.757424 27.5994 0.263526 26.7376 0.263526 25.8748C0.263526 24.7655 1.12756 23.9038 2.48549 23.9038C2.73186 23.9038 2.97823 23.9038 3.34952 24.0264H3.47213C6.06422 21.3163 7.29839 17.3744 7.29839 12.2006C7.29839 10.9618 7.19504 9.41493 7.08366 7.74791L7.05202 7.27321C7.05202 6.5341 6.92826 5.54862 6.68073 4.07039C6.55812 3.45389 6.68073 2.83854 7.17463 2.3458C7.54476 1.85306 8.16242 1.72929 8.90269 1.72929C9.27282 1.72929 9.76672 1.72929 10.3844 1.85306H10.6308L10.8771 1.97566ZM25.7308 7.3981C27.2113 7.89084 28.3229 8.75255 28.9394 9.8618C29.9272 11.5864 30.2973 13.0646 30.2973 14.2965C30.2973 15.1582 30.1736 15.8973 29.8034 16.5138C28.3229 19.8404 25.9772 21.934 23.0161 22.5505C22.646 22.6731 22.1521 22.6731 21.7819 22.6731C20.0539 22.6731 18.3258 21.8113 16.7215 20.2094C15.6111 18.9775 14.9935 17.4993 14.9935 15.6509C14.9935 13.68 15.6111 11.709 16.7215 9.61543C17.2154 8.62995 17.8319 7.89084 18.5722 7.15172C19.4362 6.28885 20.5478 5.79611 21.5344 5.79611C22.2747 5.79611 22.8923 6.04248 23.5089 6.53522C23.5089 6.53522 23.8801 6.78159 25.7308 7.3981ZM55.5174 8.56415C55.2856 8.62993 55.0461 8.69786 54.7991 8.7683C54.0113 8.98236 53.3481 9.19681 52.8339 9.36309L52.8338 9.3631C52.4617 9.48344 52.1675 9.57854 51.9606 9.63002C51.8842 9.85877 51.8549 10.1812 51.8146 10.6267C51.7896 10.9021 51.7604 11.2246 51.7131 11.601C51.8369 11.601 52.3308 11.601 53.0711 11.4784C53.9351 11.232 54.5516 11.232 54.9217 11.232C55.7858 11.232 56.5272 11.4784 57.2674 11.8474L57.5138 11.9711L57.6376 12.2175C58.1315 12.9566 58.3778 13.3256 58.3778 13.8183C58.3778 14.3111 58.1315 14.8038 57.6376 15.1739L57.2674 15.5441C56.7735 16.0368 56.2797 16.2832 55.6631 16.2832C55.0455 16.4058 54.1815 16.5296 52.8247 16.5296C52.207 16.5296 51.7131 16.5296 51.2192 16.6522C50.8491 17.884 50.7265 18.8695 50.7265 19.6086V20.3477C51.343 20.5941 52.7009 20.9642 55.1693 20.8405C55.2721 20.7892 55.3696 20.7379 55.4628 20.6888L55.4629 20.6887L55.4631 20.6886L55.4639 20.6882L55.464 20.6881C55.818 20.5018 56.1107 20.3477 56.4034 20.3477C56.8973 20.2251 57.3912 20.3477 57.884 20.5941C58.5016 20.9642 58.8717 21.7033 59.1181 22.6888C59.2419 23.3042 59.1181 23.9207 58.748 24.536C58.3778 25.2751 57.6376 25.6453 56.8973 25.6453H55.6631C53.1948 25.6453 50.9729 25.3989 49.121 24.9061C48.1344 24.7824 47.3941 24.2896 46.6527 23.5505C45.9124 22.8114 45.5423 21.9497 45.4185 20.9642C45.1722 19.1159 45.1722 17.515 45.2959 16.0368C44.4319 15.2977 44.3081 14.5574 44.4319 14.0647C44.5557 13.5719 44.802 13.0792 45.6661 12.5865C45.6661 12.3401 45.6661 11.8474 45.7898 10.8619C44.1844 10.2465 43.938 9.13728 43.938 8.52193C43.938 7.78282 44.3081 6.67357 45.9124 5.93446H46.0362L48.2582 5.07274C49.121 4.58 50.3563 4.20987 51.7131 3.84089C52.2698 3.7175 52.8573 3.56307 53.4445 3.40869L53.4446 3.40866L53.4447 3.40865L53.4447 3.40863C54.03 3.25478 54.615 3.10098 55.1693 2.97802H55.9095C56.8973 2.97802 57.7613 3.22439 58.8717 3.84089L59.3656 4.08726L59.4883 4.58C59.4883 4.58 59.4883 4.70261 59.612 4.94898L59.6137 4.95415L59.6138 4.95418C59.7369 5.32257 59.8595 5.68924 59.8595 5.93446C59.8595 6.55097 59.612 7.04371 59.1181 7.41269L58.9955 7.53645H58.8717C58.0252 7.85267 56.9076 8.16974 55.5176 8.56411L55.5175 8.56412L55.5175 8.56414L55.5174 8.56415ZM74.1832 18.8591C72.5789 17.5047 70.4807 15.6563 70.3581 15.5337L69.2465 14.6708C70.2343 14.0555 71.2221 13.3164 71.9624 12.3309C72.949 11.099 73.4429 9.74341 73.4429 8.38895C73.4429 6.78696 72.949 5.43134 71.8386 4.07688C70.6045 2.59866 69.2465 1.85955 67.5185 1.73579C63.4459 1.61318 62.2117 3.21401 61.9653 4.69223C61.5952 6.90957 61.4714 9.49704 61.4714 12.6999V16.3954C61.4714 17.3301 61.4351 18.2287 61.4018 19.052C61.3736 19.7477 61.3477 20.3896 61.3477 20.9538C61.3477 20.9952 61.334 21.0776 61.3158 21.1874V21.1875C61.2794 21.4066 61.225 21.7349 61.225 22.0631C61.1013 22.6784 61.1013 23.1712 61.1013 23.6639C61.1013 25.3885 62.0891 26.6204 63.6934 26.9905H64.1873C64.5574 26.9905 64.9275 26.8667 65.1739 26.7441H66.0379L66.2843 25.7586C66.6556 24.5268 66.902 23.0486 67.0257 21.0776C67.0257 20.6907 67.0592 20.3379 67.0912 20.0013V20.0012V20.0011L67.0912 20.0009C67.1204 19.6935 67.1484 19.3996 67.1484 19.1055C67.8898 19.8446 68.7538 20.7075 69.7404 21.6929C71.5923 23.6639 73.3192 25.1421 74.5533 26.1276L75.0472 26.4978L75.6649 26.374C77.8857 25.8812 78.3796 24.7732 78.3796 23.9103C78.3796 23.5413 78.257 23.1712 78.0095 22.9248C77.1454 21.6929 75.9113 20.3373 74.1832 18.8591ZM3.02003 12.81C4.00817 12.9319 4.87261 12.1902 4.87189 11.3273C4.99431 10.463 4.25185 9.60074 3.26371 9.47882C2.27557 9.3569 1.41113 10.0986 1.41185 10.9615C1.41277 11.9486 2.15495 12.6877 3.02003 12.81ZM3.45886 16.9954C3.46073 17.8583 2.59629 18.6001 1.60816 18.4781C0.743084 18.3559 0.000911524 17.6167 4.44784e-07 16.6296C-0.000715808 15.7668 0.863727 15.0251 1.85186 15.147C2.83999 15.2689 3.45823 16.1314 3.45886 16.9954Z" fill="#EE3869"/>
</svg>
